<svg width="15" height="15" viewBox="0 0 15 15" fill="none" xmlns="http://www.w3.org/2000/svg">
<path d="M5.43578 0.4368C5.24838 -0.0490833 4.56892 -0.0490825 4.38152 0.4368L3.48983 2.74874C3.43232 2.89784 3.31577 3.01578 3.16843 3.07397L0.883681 3.97628C0.403516 4.16591 0.40352 4.85346 0.883687 5.04309L3.16843 5.9454C3.31577 6.00359 3.43232 6.12153 3.48983 6.27063L4.38152 8.58258C4.56892 9.06846 5.24838 9.06846 5.43578 8.58258L6.32748 6.27063C6.38498 6.12153 6.50153 6.00359 6.64888 5.9454L8.93363 5.04309C9.41379 4.85346 9.41379 4.16591 8.93363 3.97628L6.64888 3.07397C6.50153 3.01578 6.38498 2.89784 6.32748 2.74874L5.43578 0.4368Z" fill="#D2EDFF"/>
<path d="M12.0885 8.10716C11.9471 7.74048 11.4344 7.74048 11.2929 8.10716L10.62 9.8519C10.5766 9.96442 10.4886 10.0534 10.3775 10.0973L8.65324 10.7783C8.29088 10.9214 8.29088 11.4402 8.65324 11.5834L10.3775 12.2643C10.4886 12.3082 10.5766 12.3972 10.62 12.5097L11.2929 14.2545C11.4344 14.6211 11.9471 14.6211 12.0885 14.2545L12.7615 12.5097C12.8049 12.3972 12.8928 12.3082 13.004 12.2643L14.7282 11.5834C15.0906 11.4402 15.0906 10.9214 14.7282 10.7783L13.004 10.0973C12.8928 10.0534 12.8049 9.96442 12.7615 9.8519L12.0885 8.10716Z" fill="#019BF0"/>
</svg>
