<svg width="14" height="15" viewBox="0 0 14 15" fill="none" xmlns="http://www.w3.org/2000/svg">
<rect x="3.56494" y="1.23572" width="5.56733" height="3.99609" rx="1.5" transform="rotate(45 3.56494 1.23572)" fill="#019BF0"/>
<path d="M5.45801 3.82214L11.9538 10.3179C12.3443 10.7084 12.3443 11.3416 11.9538 11.7321L11.2467 12.4392C10.8561 12.8297 10.223 12.8297 9.83244 12.4392L3.33669 5.94346L5.45801 3.82214Z" fill="#D2EDFF" stroke="#185BAA" stroke-linejoin="round"/>
<path d="M3.52845 9.54377C3.46031 9.36708 3.21323 9.36708 3.14508 9.54377L2.82083 10.3845C2.79992 10.4387 2.75754 10.4816 2.70396 10.5027L1.87314 10.8309C1.69854 10.8998 1.69854 11.1498 1.87314 11.2188L2.70396 11.5469C2.75754 11.5681 2.79992 11.6109 2.82083 11.6652L3.14508 12.5059C3.21323 12.6826 3.46031 12.6826 3.52845 12.5059L3.8527 11.6652C3.87361 11.6109 3.916 11.5681 3.96958 11.5469L4.80039 11.2188C4.975 11.1498 4.975 10.8998 4.80039 10.8309L3.96958 10.5027C3.916 10.4816 3.87361 10.4387 3.8527 10.3845L3.52845 9.54377Z" fill="#019BF0"/>
<path d="M9.7848 1.13288C9.71665 0.956195 9.46958 0.956195 9.40143 1.13288L9.07718 1.97359C9.05627 2.0278 9.01389 2.07069 8.96031 2.09185L8.12949 2.41996C7.95488 2.48892 7.95488 2.73894 8.12949 2.8079L8.96031 3.13601C9.01389 3.15717 9.05627 3.20005 9.07718 3.25427L9.40143 4.09498C9.46958 4.27166 9.71665 4.27166 9.7848 4.09498L10.1091 3.25427C10.13 3.20005 10.1723 3.15717 10.2259 3.13601L11.0567 2.80789C11.2313 2.73894 11.2313 2.48892 11.0567 2.41996L10.2259 2.09185C10.1723 2.07069 10.13 2.0278 10.1091 1.97359L9.7848 1.13288Z" fill="#019BF0"/>
<path d="M12.204 3.92215C12.1526 3.78881 11.9661 3.78881 11.9147 3.92215L11.67 4.5566C11.6542 4.59751 11.6222 4.62988 11.5818 4.64585L10.9548 4.89346C10.823 4.9455 10.823 5.13418 10.9548 5.18622L11.5818 5.43383C11.6222 5.4498 11.6542 5.48216 11.67 5.52308L11.9147 6.15753C11.9661 6.29087 12.1526 6.29087 12.204 6.15753L12.4487 5.52308C12.4645 5.48216 12.4964 5.4498 12.5369 5.43383L13.1639 5.18622C13.2956 5.13418 13.2956 4.9455 13.1639 4.89346L12.5369 4.64585C12.4964 4.62988 12.4645 4.59751 12.4487 4.5566L12.204 3.92215Z" fill="#019BF0"/>
</svg>
